<svg xmlns="http://www.w3.org/2000/svg" xmlns:xlink="http://www.w3.org/1999/xlink" viewBox="0 0 249.05 180.86"><defs><style>.cls-1{isolation:isolate;}.cls-2{fill:#d0b28a;}.cls-3{opacity:0.51;}.cls-3,.cls-5{mix-blend-mode:screen;}.cls-4{fill:url(#linear-gradient);}.cls-5{opacity:0.7;}.cls-6{fill:url(#linear-gradient-4);}.cls-7{fill:none;stroke:#717171;stroke-miterlimit:1;stroke-width:0.59px;}.cls-8{opacity:0.58;}.cls-9{fill:#86a614;}.cls-10{fill:#e2ad3b;}.cls-11{fill:#fff;}.cls-12{fill:#b33600;}</style><linearGradient id="linear-gradient" x1="413.31" y1="262.17" x2="413.31" y2="210.16" gradientUnits="userSpaceOnUse"><stop offset="0" stop-color="#0e0e0e"/><stop offset="0.5"/><stop offset="0.52" stop-color="#010101"/><stop offset="0.73" stop-color="#0b0b0b"/><stop offset="1" stop-color="#0e0e0e"/></linearGradient><linearGradient id="linear-gradient-4" x1="413.31" y1="210.16" x2="413.31" y2="262.17" gradientUnits="userSpaceOnUse"><stop offset="0" stop-color="#fff" stop-opacity="0.77"/><stop offset="0.2" stop-color="#fff" stop-opacity="0.65"/><stop offset="0.34" stop-color="#fff" stop-opacity="0.65"/><stop offset="0.35" stop-color="#fff" stop-opacity="0.65"/><stop offset="0.37" stop-color="#fff" stop-opacity="0.62"/><stop offset="0.4" stop-color="#fff" stop-opacity="0.53"/><stop offset="0.43" stop-color="#fff" stop-opacity="0.39"/><stop offset="0.47" stop-color="#fff" stop-opacity="0.2"/><stop offset="0.51" stop-color="#fff" stop-opacity="0"/><stop offset="0.59" stop-color="#7e7e7e" stop-opacity="0.09"/><stop offset="1" stop-color="#1b1b1b" stop-opacity="0.16"/></linearGradient></defs><title>flamingpitbbq</title><g class="cls-1"><g id="Layer_1" data-name="Layer 1"><path class="cls-2" d="M512.59,262.16c-4.25,0-8.5,0-12.76,0a1,1,0,0,1-1.16-.93,14.13,14.13,0,0,1,0-6.9c0.21-.78,0-1.07-0.82-1.08a60,60,0,0,1-12.74-1.35c-7.4-1.66-14.3-4.42-20.06-9.53a13.48,13.48,0,0,1-4.46-7.11,13.12,13.12,0,0,1,1.88-10.18,23.59,23.59,0,0,1,7.73-7.32A47.88,47.88,0,0,1,488.48,211a63.79,63.79,0,0,1,19.09-.24c8.53,1.18,16.42,4,23.23,9.46a17.3,17.3,0,0,1,6.11,8.3c1.63,5.23.35,9.77-3.5,13.6a32.65,32.65,0,0,1-12.66,7.54c-3,1-6,1.75-9.06,2.58-0.91.25-1,.41-0.46,1.22,1.58,2.35,4,3.12,6.6,3.45s5.28,0.6,7.91,1a0.94,0.94,0,0,1,.58.68c0.07,0.85,0,1.71,0,2.57s-0.2,1.06-1,1C521.09,262.14,516.84,262.16,512.59,262.16Zm-24.78-20,0.27-.13c0.16-.7.3-1.41,0.48-2.11,0.66-2.5,1.84-4.61,4.37-5.65a11,11,0,0,1,12.28,3.27,17.37,17.37,0,0,1,2.91,6c0.26,0.9.46,1,1.13,0.29a14.71,14.71,0,0,0,3.57-5.7,19.36,19.36,0,0,0,.2-11,11.63,11.63,0,0,0-8.82-9,21.32,21.32,0,0,0-10.7-.07,11,11,0,0,0-7.61,6.07,19.47,19.47,0,0,0-1.67,9.65,13,13,0,0,0,2.6,7.32C487.12,241.42,487.48,241.77,487.82,242.14Zm9.78,3.33,0-.23h0.55c2.36,0,2.39,0,2.43-2.38,0.07-4.28-2.93-5.42-6.17-4.46-1.89.57-3.34,3.46-2.81,5.43a1.06,1.06,0,0,0,.69.59C494.08,244.8,495.84,245.13,497.6,245.47Z" transform="translate(-288.84 -87.57)"/><path class="cls-2" d="M351.57,231a6.48,6.48,0,0,0,.74.17,47,47,0,0,1,11.15,2.49,25.22,25.22,0,0,1,5.13,2.59,6.49,6.49,0,0,1-.13,11.16,20.68,20.68,0,0,1-7.17,2.68,78.23,78.23,0,0,1-15.6,1.21q-27.71,0-55.42,0H289c0.4-.3.57-0.44,0.76-0.56,4.26-2.65,8.51-5.3,12.78-7.93a1.6,1.6,0,0,0,.85-1.56q0-9.82,0-19.64a1.69,1.69,0,0,0-.9-1.63c-4.42-2.78-8.82-5.6-13.43-8.53,0.46,0,.7-0.09.94-0.09,19.61,0,39.21,0,58.82,0a30.62,30.62,0,0,1,14.14,3,16.29,16.29,0,0,1,3.91,2.82c2.42,2.38,3.06,6.87-1.16,9.44a22.92,22.92,0,0,1-7.16,2.72c-1.85.4-3.72,0.68-5.58,1-0.47.09-.93,0.21-1.4,0.32V231Zm-17.11,4.06c-3.18,0-6.35,0-9.53,0a0.85,0.85,0,0,0-1,1c0,2.35,0,4.7,0,7.06,0,1.19,0,1.25,1.23,1.25,5.32,0,10.63,0,15.95,0a13.94,13.94,0,0,0,5.57-.9,3.77,3.77,0,0,0,2.62-3.7,4,4,0,0,0-2.72-4.05,10.42,10.42,0,0,0-3.2-.62C340.38,235,337.42,235.07,334.45,235.07Zm-0.64-7.83h6.79c1.22-.09,2.45-0.09,3.64-0.3a4.12,4.12,0,0,0,.53-8.13,10,10,0,0,0-2.87-.49c-5.66,0-11.31,0-17,0a0.87,0.87,0,0,0-1,1.08c0,2.26,0,4.53,0,6.79a0.9,0.9,0,0,0,1.12,1.1C327.94,227.22,330.88,227.25,333.82,227.25Z" transform="translate(-288.84 -87.57)"/><path class="cls-2" d="M374.31,211.46c4.21-.39,61.65-0.13,63.38.29a17.23,17.23,0,0,0-6.39,7.47l-0.55-.13a24.21,24.21,0,0,0-4.11-.76c-5.44-.09-10.89,0-16.33-0.05-0.9,0-1.26.23-1.24,1.18,0.05,2.23,0,4.46,0,6.7a0.88,0.88,0,0,0,1,1.09c5.75,0,11.5,0,17.25-.05a26.41,26.41,0,0,0,3.79-.59c0.33,0.51.71,1.16,1.15,1.78a3.7,3.7,0,0,0,5.28,1.24,12.48,12.48,0,0,0,4-3.68,52.83,52.83,0,0,0,5.7-10.21l0.6-1.31c4.11,0.64,7.26,6.11,5.54,9.58a7.74,7.74,0,0,1-3.77,3.35,33.19,33.19,0,0,1-9.1,2.69c-1.27.23-2.56,0.42-3.84,0.63l0,0.31a7.64,7.64,0,0,0,.87.21,46,46,0,0,1,12.51,3,20.1,20.1,0,0,1,4.39,2.61,6.41,6.41,0,0,1-.25,10.16,19,19,0,0,1-7.67,3.1,74,74,0,0,1-15,1.22q-28.12,0-56.24,0h-1.15c0.37-.28.53-0.43,0.71-0.54,4.23-2.63,8.45-5.28,12.7-7.88a1.73,1.73,0,0,0,1-1.68q0-9.77,0-19.54a1.76,1.76,0,0,0-.95-1.69c-4.24-2.67-8.46-5.38-12.69-8.07Zm45.33,23.61c-3.18,0-6.36,0-9.53,0a0.85,0.85,0,0,0-1,1c0,2.35,0,4.71,0,7.06,0,1.18.06,1.25,1.24,1.25,5.29,0,10.57.07,15.86,0a22.91,22.91,0,0,0,5.56-.88,3.52,3.52,0,0,0,2.71-3.61,4.1,4.1,0,0,0-2.73-4.15,10.57,10.57,0,0,0-3.21-.61C425.57,235,422.61,235.07,419.64,235.07Z" transform="translate(-288.84 -87.57)"/><g class="cls-3"><path class="cls-4" d="M512.59,262.16c-4.25,0-8.5,0-12.76,0a1,1,0,0,1-1.16-.93,14.13,14.13,0,0,1,0-6.9c0.21-.78,0-1.07-0.82-1.08a60,60,0,0,1-12.74-1.35c-7.4-1.66-14.3-4.42-20.06-9.53a13.48,13.48,0,0,1-4.46-7.11,13.12,13.12,0,0,1,1.88-10.18,23.59,23.59,0,0,1,7.73-7.32A47.88,47.88,0,0,1,488.48,211a63.79,63.79,0,0,1,19.09-.24c8.53,1.18,16.42,4,23.23,9.46a17.3,17.3,0,0,1,6.11,8.3c1.63,5.23.35,9.77-3.5,13.6a32.65,32.65,0,0,1-12.66,7.54c-3,1-6,1.75-9.06,2.58-0.91.25-1,.41-0.46,1.22,1.58,2.35,4,3.12,6.6,3.45s5.28,0.6,7.91,1a0.94,0.94,0,0,1,.58.68c0.07,0.85,0,1.71,0,2.57s-0.2,1.06-1,1C521.09,262.14,516.84,262.16,512.59,262.16Zm-24.78-20,0.27-.13c0.16-.7.3-1.41,0.48-2.11,0.66-2.5,1.84-4.61,4.37-5.65a11,11,0,0,1,12.28,3.27,17.37,17.37,0,0,1,2.91,6c0.26,0.9.46,1,1.13,0.29a14.71,14.71,0,0,0,3.57-5.7,19.36,19.36,0,0,0,.2-11,11.63,11.63,0,0,0-8.82-9,21.32,21.32,0,0,0-10.7-.07,11,11,0,0,0-7.61,6.07,19.47,19.47,0,0,0-1.67,9.65,13,13,0,0,0,2.6,7.32C487.12,241.42,487.48,241.77,487.82,242.14Zm9.78,3.33,0-.23h0.55c2.36,0,2.39,0,2.43-2.38,0.07-4.28-2.93-5.42-6.17-4.46-1.89.57-3.34,3.46-2.81,5.43a1.06,1.06,0,0,0,.69.59C494.08,244.8,495.84,245.13,497.6,245.47Z" transform="translate(-288.84 -87.57)"/><path class="cls-4" d="M351.57,231a6.48,6.48,0,0,0,.74.17,47,47,0,0,1,11.15,2.49,25.22,25.22,0,0,1,5.13,2.59,6.49,6.49,0,0,1-.13,11.16,20.68,20.68,0,0,1-7.17,2.68,78.23,78.23,0,0,1-15.6,1.21q-27.71,0-55.42,0H289c0.4-.3.57-0.44,0.76-0.56,4.26-2.65,8.51-5.3,12.78-7.93a1.6,1.6,0,0,0,.85-1.56q0-9.82,0-19.64a1.69,1.69,0,0,0-.9-1.63c-4.42-2.78-8.82-5.6-13.43-8.53,0.46,0,.7-0.09.94-0.09,19.61,0,39.21,0,58.82,0a30.62,30.62,0,0,1,14.14,3,16.29,16.29,0,0,1,3.91,2.82c2.42,2.38,3.06,6.87-1.16,9.44a22.92,22.92,0,0,1-7.16,2.72c-1.85.4-3.72,0.68-5.58,1-0.47.09-.93,0.21-1.4,0.32V231Zm-17.11,4.06c-3.18,0-6.35,0-9.53,0a0.85,0.85,0,0,0-1,1c0,2.35,0,4.7,0,7.06,0,1.19,0,1.25,1.23,1.25,5.32,0,10.63,0,15.95,0a13.94,13.94,0,0,0,5.57-.9,3.77,3.77,0,0,0,2.62-3.7,4,4,0,0,0-2.72-4.05,10.42,10.42,0,0,0-3.2-.62C340.38,235,337.42,235.07,334.45,235.07Zm-0.64-7.83h6.79c1.22-.09,2.45-0.09,3.64-0.3a4.12,4.12,0,0,0,.53-8.13,10,10,0,0,0-2.87-.49c-5.66,0-11.31,0-17,0a0.87,0.87,0,0,0-1,1.08c0,2.26,0,4.53,0,6.79a0.9,0.9,0,0,0,1.12,1.1C327.94,227.22,330.88,227.25,333.82,227.25Z" transform="translate(-288.84 -87.57)"/><path class="cls-4" d="M374.31,211.46c4.21-.39,61.65-0.13,63.38.29a17.23,17.23,0,0,0-6.39,7.47l-0.55-.13a24.21,24.21,0,0,0-4.11-.76c-5.44-.09-10.89,0-16.33-0.05-0.9,0-1.26.23-1.24,1.18,0.05,2.23,0,4.46,0,6.7a0.88,0.88,0,0,0,1,1.09c5.75,0,11.5,0,17.25-.05a26.41,26.41,0,0,0,3.79-.59c0.33,0.51.71,1.16,1.15,1.78a3.7,3.7,0,0,0,5.28,1.24,12.48,12.48,0,0,0,4-3.68,52.83,52.83,0,0,0,5.7-10.21l0.6-1.31c4.11,0.64,7.26,6.11,5.54,9.58a7.74,7.74,0,0,1-3.77,3.35,33.19,33.19,0,0,1-9.1,2.69c-1.27.23-2.56,0.42-3.84,0.63l0,0.31a7.64,7.64,0,0,0,.87.21,46,46,0,0,1,12.51,3,20.1,20.1,0,0,1,4.39,2.61,6.41,6.41,0,0,1-.25,10.16,19,19,0,0,1-7.67,3.1,74,74,0,0,1-15,1.22q-28.12,0-56.24,0h-1.15c0.37-.28.53-0.43,0.71-0.54,4.23-2.63,8.45-5.28,12.7-7.88a1.73,1.73,0,0,0,1-1.68q0-9.77,0-19.54a1.76,1.76,0,0,0-.95-1.69c-4.24-2.67-8.46-5.38-12.69-8.07Zm45.33,23.61c-3.18,0-6.36,0-9.53,0a0.85,0.85,0,0,0-1,1c0,2.35,0,4.71,0,7.06,0,1.18.06,1.25,1.24,1.25,5.29,0,10.57.07,15.86,0a22.91,22.91,0,0,0,5.56-.88,3.52,3.52,0,0,0,2.71-3.61,4.1,4.1,0,0,0-2.73-4.15,10.57,10.57,0,0,0-3.21-.61C425.57,235,422.61,235.07,419.64,235.07Z" transform="translate(-288.84 -87.57)"/></g><g class="cls-5"><path class="cls-6" d="M512.59,262.16c-4.25,0-8.5,0-12.76,0a1,1,0,0,1-1.16-.93,14.13,14.13,0,0,1,0-6.9c0.21-.78,0-1.07-0.82-1.08a60,60,0,0,1-12.74-1.35c-7.4-1.66-14.3-4.42-20.06-9.53a13.48,13.48,0,0,1-4.46-7.11,13.12,13.12,0,0,1,1.88-10.18,23.59,23.59,0,0,1,7.73-7.32A47.88,47.88,0,0,1,488.48,211a63.79,63.79,0,0,1,19.09-.24c8.53,1.18,16.42,4,23.23,9.46a17.3,17.3,0,0,1,6.11,8.3c1.63,5.23.35,9.77-3.5,13.6a32.65,32.65,0,0,1-12.66,7.54c-3,1-6,1.75-9.06,2.58-0.91.25-1,.41-0.46,1.22,1.58,2.35,4,3.12,6.6,3.45s5.28,0.6,7.91,1a0.94,0.94,0,0,1,.58.68c0.07,0.85,0,1.71,0,2.57s-0.2,1.06-1,1C521.09,262.14,516.84,262.16,512.59,262.16Zm-24.78-20,0.27-.13c0.16-.7.3-1.41,0.48-2.11,0.66-2.5,1.84-4.61,4.37-5.65a11,11,0,0,1,12.28,3.27,17.37,17.37,0,0,1,2.91,6c0.26,0.9.46,1,1.13,0.29a14.71,14.71,0,0,0,3.57-5.7,19.36,19.36,0,0,0,.2-11,11.63,11.63,0,0,0-8.82-9,21.32,21.32,0,0,0-10.7-.07,11,11,0,0,0-7.61,6.07,19.47,19.47,0,0,0-1.67,9.65,13,13,0,0,0,2.6,7.32C487.12,241.42,487.48,241.77,487.82,242.14Zm9.78,3.33,0-.23h0.55c2.36,0,2.39,0,2.43-2.38,0.07-4.28-2.93-5.42-6.17-4.46-1.89.57-3.34,3.46-2.81,5.43a1.06,1.06,0,0,0,.69.59C494.08,244.8,495.84,245.13,497.6,245.47Z" transform="translate(-288.84 -87.57)"/><path class="cls-6" d="M351.57,231a6.48,6.48,0,0,0,.74.17,47,47,0,0,1,11.15,2.49,25.22,25.22,0,0,1,5.13,2.59,6.49,6.49,0,0,1-.13,11.16,20.68,20.68,0,0,1-7.17,2.68,78.23,78.23,0,0,1-15.6,1.21q-27.71,0-55.42,0H289c0.4-.3.57-0.44,0.76-0.56,4.26-2.65,8.51-5.3,12.78-7.93a1.6,1.6,0,0,0,.85-1.56q0-9.82,0-19.64a1.69,1.69,0,0,0-.9-1.63c-4.42-2.78-8.82-5.6-13.43-8.53,0.46,0,.7-0.09.94-0.09,19.61,0,39.21,0,58.82,0a30.62,30.62,0,0,1,14.14,3,16.29,16.29,0,0,1,3.91,2.82c2.42,2.38,3.06,6.87-1.16,9.44a22.92,22.92,0,0,1-7.16,2.72c-1.85.4-3.72,0.68-5.58,1-0.47.09-.93,0.21-1.4,0.32V231Zm-17.11,4.06c-3.18,0-6.35,0-9.53,0a0.85,0.85,0,0,0-1,1c0,2.35,0,4.7,0,7.06,0,1.19,0,1.25,1.23,1.25,5.32,0,10.63,0,15.95,0a13.94,13.94,0,0,0,5.57-.9,3.77,3.77,0,0,0,2.62-3.7,4,4,0,0,0-2.72-4.05,10.42,10.42,0,0,0-3.2-.62C340.38,235,337.42,235.07,334.45,235.07Zm-0.64-7.83h6.79c1.22-.09,2.45-0.09,3.64-0.3a4.12,4.12,0,0,0,.53-8.13,10,10,0,0,0-2.87-.49c-5.66,0-11.31,0-17,0a0.87,0.87,0,0,0-1,1.08c0,2.26,0,4.53,0,6.79a0.9,0.9,0,0,0,1.12,1.1C327.94,227.22,330.88,227.25,333.82,227.25Z" transform="translate(-288.84 -87.57)"/><path class="cls-6" d="M374.31,211.46c4.21-.39,61.65-0.13,63.38.29a17.23,17.23,0,0,0-6.39,7.47l-0.55-.13a24.21,24.21,0,0,0-4.11-.76c-5.44-.09-10.89,0-16.33-0.05-0.9,0-1.26.23-1.24,1.18,0.05,2.23,0,4.46,0,6.7a0.88,0.88,0,0,0,1,1.09c5.75,0,11.5,0,17.25-.05a26.41,26.41,0,0,0,3.79-.59c0.33,0.51.71,1.16,1.15,1.78a3.7,3.7,0,0,0,5.28,1.24,12.48,12.48,0,0,0,4-3.68,52.83,52.83,0,0,0,5.7-10.21l0.6-1.31c4.11,0.64,7.26,6.11,5.54,9.58a7.74,7.74,0,0,1-3.77,3.35,33.19,33.19,0,0,1-9.1,2.69c-1.27.23-2.56,0.42-3.84,0.63l0,0.31a7.64,7.64,0,0,0,.87.21,46,46,0,0,1,12.51,3,20.1,20.1,0,0,1,4.39,2.61,6.41,6.41,0,0,1-.25,10.16,19,19,0,0,1-7.67,3.1,74,74,0,0,1-15,1.22q-28.12,0-56.24,0h-1.15c0.37-.28.53-0.43,0.71-0.54,4.23-2.63,8.45-5.28,12.7-7.88a1.73,1.73,0,0,0,1-1.68q0-9.77,0-19.54a1.76,1.76,0,0,0-.95-1.69c-4.24-2.67-8.46-5.38-12.69-8.07Zm45.33,23.61c-3.18,0-6.36,0-9.53,0a0.85,0.85,0,0,0-1,1c0,2.35,0,4.71,0,7.06,0,1.18.06,1.25,1.24,1.25,5.29,0,10.57.07,15.86,0a22.91,22.91,0,0,0,5.56-.88,3.52,3.52,0,0,0,2.71-3.61,4.1,4.1,0,0,0-2.73-4.15,10.57,10.57,0,0,0-3.21-.61C425.57,235,422.61,235.07,419.64,235.07Z" transform="translate(-288.84 -87.57)"/></g><path class="cls-7" d="M512.59,262.16c-4.25,0-8.5,0-12.76,0a1,1,0,0,1-1.16-.93,14.13,14.13,0,0,1,0-6.9c0.21-.78,0-1.07-0.82-1.08a60,60,0,0,1-12.74-1.35c-7.4-1.66-14.3-4.42-20.06-9.53a13.48,13.48,0,0,1-4.46-7.11,13.12,13.12,0,0,1,1.88-10.18,23.59,23.59,0,0,1,7.73-7.32A47.88,47.88,0,0,1,488.48,211a63.79,63.79,0,0,1,19.09-.24c8.53,1.18,16.42,4,23.23,9.46a17.3,17.3,0,0,1,6.11,8.3c1.63,5.23.35,9.77-3.5,13.6a32.65,32.65,0,0,1-12.66,7.54c-3,1-6,1.75-9.06,2.58-0.91.25-1,.41-0.46,1.22,1.58,2.35,4,3.12,6.6,3.45s5.28,0.6,7.91,1a0.94,0.94,0,0,1,.58.68c0.07,0.85,0,1.71,0,2.57s-0.2,1.06-1,1C521.09,262.14,516.84,262.16,512.59,262.16Zm-24.78-20,0.27-.13c0.16-.7.3-1.41,0.48-2.11,0.66-2.5,1.84-4.61,4.37-5.65a11,11,0,0,1,12.28,3.27,17.37,17.37,0,0,1,2.91,6c0.26,0.9.46,1,1.13,0.29a14.71,14.71,0,0,0,3.57-5.7,19.36,19.36,0,0,0,.2-11,11.63,11.63,0,0,0-8.82-9,21.32,21.32,0,0,0-10.7-.07,11,11,0,0,0-7.61,6.07,19.47,19.47,0,0,0-1.67,9.65,13,13,0,0,0,2.6,7.32C487.12,241.42,487.48,241.77,487.82,242.14Zm9.78,3.33,0-.23h0.55c2.36,0,2.39,0,2.43-2.38,0.07-4.28-2.93-5.42-6.17-4.46-1.89.57-3.34,3.46-2.81,5.43a1.06,1.06,0,0,0,.69.59C494.08,244.8,495.84,245.13,497.6,245.47Z" transform="translate(-288.84 -87.57)"/><path class="cls-7" d="M351.57,231a6.48,6.48,0,0,0,.74.17,47,47,0,0,1,11.15,2.49,25.22,25.22,0,0,1,5.13,2.59,6.49,6.49,0,0,1-.13,11.16,20.68,20.68,0,0,1-7.17,2.68,78.23,78.23,0,0,1-15.6,1.21q-27.71,0-55.42,0H289c0.4-.3.57-0.44,0.76-0.56,4.26-2.65,8.51-5.3,12.78-7.93a1.6,1.6,0,0,0,.85-1.56q0-9.82,0-19.64a1.69,1.69,0,0,0-.9-1.63c-4.42-2.78-8.82-5.6-13.43-8.53,0.46,0,.7-0.09.94-0.09,19.61,0,39.21,0,58.82,0a30.62,30.62,0,0,1,14.14,3,16.29,16.29,0,0,1,3.91,2.82c2.42,2.38,3.06,6.87-1.16,9.44a22.92,22.92,0,0,1-7.16,2.72c-1.85.4-3.72,0.68-5.58,1-0.47.09-.93,0.21-1.4,0.32V231Zm-17.11,4.06c-3.18,0-6.35,0-9.53,0a0.85,0.85,0,0,0-1,1c0,2.35,0,4.7,0,7.06,0,1.19,0,1.25,1.23,1.25,5.32,0,10.63,0,15.95,0a13.94,13.94,0,0,0,5.57-.9,3.77,3.77,0,0,0,2.62-3.7,4,4,0,0,0-2.72-4.05,10.42,10.42,0,0,0-3.2-.62C340.38,235,337.42,235.07,334.45,235.07Zm-0.64-7.83h6.79c1.22-.09,2.45-0.09,3.64-0.3a4.12,4.12,0,0,0,.53-8.13,10,10,0,0,0-2.87-.49c-5.66,0-11.31,0-17,0a0.87,0.87,0,0,0-1,1.08c0,2.26,0,4.53,0,6.79a0.9,0.9,0,0,0,1.12,1.1C327.94,227.22,330.88,227.25,333.82,227.25Z" transform="translate(-288.84 -87.57)"/><path class="cls-7" d="M374.31,211.46c4.21-.39,61.65-0.13,63.38.29a17.23,17.23,0,0,0-6.39,7.47l-0.55-.13a24.21,24.21,0,0,0-4.11-.76c-5.44-.09-10.89,0-16.33-0.05-0.9,0-1.26.23-1.24,1.18,0.05,2.23,0,4.46,0,6.7a0.88,0.88,0,0,0,1,1.09c5.75,0,11.5,0,17.25-.05a26.41,26.41,0,0,0,3.79-.59c0.33,0.51.71,1.16,1.15,1.78a3.7,3.7,0,0,0,5.28,1.24,12.48,12.48,0,0,0,4-3.68,52.83,52.83,0,0,0,5.7-10.21l0.6-1.31c4.11,0.64,7.26,6.11,5.54,9.58a7.74,7.74,0,0,1-3.77,3.35,33.19,33.19,0,0,1-9.1,2.69c-1.27.23-2.56,0.42-3.84,0.63l0,0.31a7.64,7.64,0,0,0,.87.21,46,46,0,0,1,12.51,3,20.1,20.1,0,0,1,4.39,2.61,6.41,6.41,0,0,1-.25,10.16,19,19,0,0,1-7.67,3.1,74,74,0,0,1-15,1.22q-28.12,0-56.24,0h-1.15c0.37-.28.53-0.43,0.71-0.54,4.23-2.63,8.45-5.28,12.7-7.88a1.73,1.73,0,0,0,1-1.68q0-9.77,0-19.54a1.76,1.76,0,0,0-.95-1.69c-4.24-2.67-8.46-5.38-12.69-8.07Zm45.33,23.61c-3.18,0-6.36,0-9.53,0a0.85,0.85,0,0,0-1,1c0,2.35,0,4.71,0,7.06,0,1.18.06,1.25,1.24,1.25,5.29,0,10.57.07,15.86,0a22.91,22.91,0,0,0,5.56-.88,3.52,3.52,0,0,0,2.71-3.61,4.1,4.1,0,0,0-2.73-4.15,10.57,10.57,0,0,0-3.21-.61C425.57,235,422.61,235.07,419.64,235.07Z" transform="translate(-288.84 -87.57)"/><g class="cls-8"><path d="M512.59,262.1c-3.34,0-6.68,0-10,0-1,0-2.63.44-3.52-.18-1.78-1.24.52-5.87-.34-7.52,0,0-.12-2.91,0-0.94h0c-3.5-1.12-8-.54-11.72-1.23A55.11,55.11,0,0,1,476,249c-5.56-2.3-12.89-6.27-14.92-12.4-5.69-17.18,20.1-25.08,32.22-26.15,13.64-1.2,31.5,1.67,40.78,12.93,5.29,6.42,4.15,14.47-1.84,19.82a32.34,32.34,0,0,1-9.88,5.82c-3.66,1.42-8,1.77-11.4,3.56a0.46,0.46,0,0,0,0,.12c2,5.07,8.93,4.24,13.25,5,1.9,0.35,2.06-.15,2,2.3-0.08,2.63-.39,2-2.63,2.06-3.63.14-7.3,0-10.93,0v0.12c2.82,0,12.63,1.32,13.78-1a3.82,3.82,0,0,0,0-1.39c-0.33-3.12-3.23-2.3-6.15-2.64s-13.77-3.43-5.78-5.57c8.8-2.37,22.24-6.86,23.12-17.76a14.65,14.65,0,0,0-3.07-10c-5.92-7.78-16.8-11.63-26.11-13-11.28-1.71-23.52-.59-33.85,4.49-13.78,6.78-20.16,20.35-5.58,30.11a46.8,46.8,0,0,0,15.42,6.37,58,58,0,0,0,9.86,1.42c0.63,0,3.41-.11,3.67.12,1.09,0.94.25,3.18,0.38,4.4a10.31,10.31,0,0,0,.11,1.84c0.41,2.77.83,2.55,3.28,2.66,3.62,0.16,7.31,0,10.93,0V262.1Z" transform="translate(-288.84 -87.57)"/><path d="M487.82,242.2c0.93-.44,1.44-4.54,2.23-5.61a8.07,8.07,0,0,1,6.83-3,11.29,11.29,0,0,1,7.44,3,13.31,13.31,0,0,1,2.65,3.83c0.11,0.22,1.15,3.78,1.58,3.86,1.65,0.29,3.87-4.93,4.29-6.14a17.65,17.65,0,0,0,.9-5.52A21.42,21.42,0,0,0,513,227c-3-11.4-21.76-13.77-27.14-3-2.83,5.67-2.29,13.49,1.93,18.21,0,0,0-.1,0-0.12-6.28-7-4.56-20.8,5.05-23.85,8-2.53,17.9.13,20.15,8.89a19.61,19.61,0,0,1-.69,12.18c-0.51,1.13-1.83,3.95-3.07,4.42-1.59.61-1.61-2-2.3-3.41a12.32,12.32,0,0,0-3.68-4.69c-3-2.18-7.58-3-10.92-1.12a7.28,7.28,0,0,0-3.17,3.57c-0.37.81-.65,3.67-1.37,4C487.8,242.08,487.83,242.19,487.82,242.2Z" transform="translate(-288.84 -87.57)"/><path d="M497.6,245.53c0.11-.58,2.38.07,2.88-0.89a4.33,4.33,0,0,0,.14-1.78c0-2.25-.9-4.41-3.36-4.79a4.86,4.86,0,0,0-5.73,4.88,2.47,2.47,0,0,0,0,.53c0.39,1.69,4.56,1.76,6,2,0,0,0-.12,0-0.12-1.53-.3-3.11-0.5-4.61-0.91-1.32-.36-1.66-0.61-1.38-2.32a5.23,5.23,0,0,1,.43-1.32,4.67,4.67,0,0,1,5-2.69,3.87,3.87,0,0,1,3.46,3.46c0.15,0.83.46,2.76-.5,3.37-0.55.35-2.33-.15-2.44,0.41C497.59,245.45,497.6,245.49,497.6,245.53Z" transform="translate(-288.84 -87.57)"/><path d="M351.57,231.07c5.87,1.36,18.07,1.7,19.93,9.2,2.57,10.34-16,10.78-21.89,10.93-10.53.28-21.1,0.06-31.63,0.06H294.22c-3.09,0-6.16.63-2.05-1.93,3.69-2.3,10.64-4.49,11.24-9.05,0.37-2.84,0-5.95,0-8.82s0.88-7.13,0-9.8a4.12,4.12,0,0,0-.56-1.36c-0.91-1.26-3.42-2.28-4.77-3.13-2-1.25-4.07-2.42-6-3.8-3.44-2.5-1-1.91,1.82-1.91h8.82q15.68,0,31.37,0c9.82,0,22.4-1.86,30.89,4.28,3.64,2.63,5.29,7.26,1.26,10.45s-9.9,3.37-14.71,4.47h0V231s0,0.09,0,.12c0-.29,12.66-3.34,14.16-4.35a6.14,6.14,0,0,0,3.07-4.83c0.25-5.27-6.16-8.14-10.37-9.34-5-1.43-10.31-1.19-15.48-1.2l-17.64,0c-11.93,0-24.36-1-36.23.09a1,1,0,0,0,0,.12c4,2.53,8.09,4.92,12,7.6,2.7,1.88,2.31,3.08,2.36,6.4,0,2,0,3.94,0,5.91s0,3.94,0,5.91c-0.05,3.43.35,4.5-2.44,6.39-3.88,2.63-8.16,4.71-11.94,7.5,0,0,0,.12,0,0.12h36.87c12.15,0,25.84,1.63,37.64-1.77,3.94-1.14,8.5-3.55,8.15-8.31-0.61-8.42-14.2-9-20.12-10.35C351.57,231,351.56,231.07,351.57,231.07Z" transform="translate(-288.84 -87.57)"/><path d="M334.45,235c-2.53,0-9.34-1.16-10.56,1-0.09.17,0.06,25.54,0,2.71,0,0.23-.55,4.61.06,5.31,1.44,1.63,10,.41,12.14.4,3.7,0,13.12,1.18,13.17-4.68,0.06-6.54-10.7-4.78-14.82-4.76v0.12c3.92,0,13.13-1.67,14.63,3.36,2,6.58-8.43,5.84-12,5.84-3.32,0-6.64,0-10,0-0.63,0-2.26.31-2.84-.06-0.24-.15-0.41-4-0.38-5.54,0-1.13-.22-2.94.61-3.49,1.58-1,8.13-.1,9.93-0.1V235Z" transform="translate(-288.84 -87.57)"/><path d="M333.82,227.31c3.82,0,13.74,1.66,14.18-4.13,0.46-6.16-9-4.93-12.69-4.93-2.84,0-10-1.22-11.41,1.07,0,0,0,0,0,0s0,0,0,0v0q0,1.68,0,3.35t0,3.35h0s0,0,0,0,0,0,0,.06c1.28,2.15,7.32,1.09,9.93,1.09v-0.12c-2.13,0-7.46,1-9.25-.1-0.9-.54-0.65-3.1-0.65-4.3a12,12,0,0,1,.08-3c0.54-1.9.86-1.37,2.81-1.46s3.79,0,5.66,0c3.35,0,18-1.78,15.3,5.84-1.6,4.47-10.35,3-14,3v0.12Z" transform="translate(-288.84 -87.57)"/><path d="M374.31,211.52c8-.64,16.29-0.2,24.34-0.18,11,0,22.07.06,33.11,0.27a30.15,30.15,0,0,1,4.31.11c2.76,0.47.08,0.91-1.65,2.74-0.91,1-2.15,4.16-3.12,4.71-0.71.41-3.73-.81-4.65-0.89-2.68-.23-5.48,0-8.16,0-2.05,0-6.91-.82-8.65.11s-1.12,7.24-.75,7.85c1.1,1.8,3.63,1.11,5.83,1.11,2.87,0,5.75,0,8.62,0,1.26,0,2.58.07,3.83,0,0.51,0,3.41-.77,3.79-0.59,1.66,0.79,1.62,3.41,4.06,3.62,2.14,0.19,4.23-1.78,5.53-3.21a32.76,32.76,0,0,0,4.39-6.76c0.52-1,1-2,1.48-3,0.74-1.56.58-2.75,2.39-2.55,4.59,0.5,5.86,7.93,3.29,10.71-3.56,3.85-10.74,4.36-15.55,5.12h0l0,0.31a0.79,0.79,0,0,0,0,.12c6,1.45,15.83,1.48,19.35,7.68,4.7,8.29-8,11.23-13.21,11.93-8.17,1.09-16.6.61-24.82,0.62H379.26c-0.63,0-3.88.46-4.32-.42,0-.08,5.06-3.15,5.55-3.46,2.56-1.59,7.11-3.23,8.12-6.17,0,0,0-4.87,0-5.87q0-4.87,0-9.74,0-2,0-3.91v0s0,0,0,0c-0.69-2-2.28-2.54-4.13-3.71-3.4-2.15-6.83-4.27-10.18-6.51,0,0,0,.11,0,0.12,4,2.65,9.09,4.79,12.56,8,1.69,1.58,1.68,2.71,1.73,5s0,4.57,0,6.86c0,3.21,1.08,8.93-.94,11.39-1.53,1.86-5.1,3.15-7.15,4.42s-4.3,2.51-6.26,4c0,0,0,.12,0,0.12h32.18c10.85,0,21.89.55,32.72-.25,5.7-.42,17.44-1.31,17.74-9.12,0.16-4.09-3.43-6.34-6.77-7.85a34.94,34.94,0,0,0-7-2.15,33.14,33.14,0,0,1-3.63-.64c-1-.35-3,0.36-0.77-1,1.54-.92,4.78-0.83,6.56-1.34,2.24-.64,4.84-1.45,6.62-3a5.68,5.68,0,0,0,2-5.26c-0.28-1.92-3.24-7.29-5.94-6.43-0.76.24-2.31,5-2.78,5.84a36.08,36.08,0,0,1-4,6.22c-2.37,2.88-5.93,5.37-8.88,1.91-1.57-1.85-1.19-1.6-3.71-1.3a68.16,68.16,0,0,1-7.94.15c-2.86,0-5.77.16-8.62,0-2.41-.13-2.28.53-2.84-1.46a11.59,11.59,0,0,1-.08-2.89c0-.56,0-1.17,0-1.74,0.12-2.46.05-2.25,2.12-2.76,2.35-.58,5.73,0,8.17,0a58.16,58.16,0,0,1,8.63.2,12.59,12.59,0,0,0,2.74.61c1-.34,1.12-1.2,1.91-2.39a19.82,19.82,0,0,1,5-4.95,0.83,0.83,0,0,0,0-.12c-3.28-.58-6.93-0.24-10.24-0.28q-10.26-.14-20.52-0.17c-10.79,0-21.85-.7-32.62.16C374.31,211.4,374.31,211.52,374.31,211.52Z" transform="translate(-288.84 -87.57)"/><path d="M419.64,235c-2.53,0-9.34-1.17-10.56,1a52.24,52.24,0,0,0,0,5.34,10.84,10.84,0,0,0,.06,2.69c1.44,1.62,10,.43,12.09.42,3.72,0,13.13,1,13.23-4.62,0.12-6.66-10.69-4.85-14.83-4.84v0.12c3.91,0,12.3-1.59,14.4,2.82,3.24,6.8-8.34,6.37-11.81,6.39-3,0-5.95,0-8.92,0-0.62,0-3.4.38-3.82-.07,0,0-.39-4.66-0.39-4.65-0.05-1.59-.25-3.75,1-4.49,0.69-.4,3,0,3.81,0h5.72V235Z" transform="translate(-288.84 -87.57)"/></g><path class="cls-9" d="M512.59,262.16c-4.25,0-8.5,0-12.76,0a1,1,0,0,1-1.16-.93,14.13,14.13,0,0,1,0-6.9c0.21-.78,0-1.07-0.82-1.08a60,60,0,0,1-12.74-1.35c-7.4-1.66-14.3-4.42-20.06-9.53a13.48,13.48,0,0,1-4.46-7.11,13.12,13.12,0,0,1,1.88-10.18,23.59,23.59,0,0,1,7.73-7.32A47.88,47.88,0,0,1,488.48,211a63.79,63.79,0,0,1,19.09-.24c8.53,1.18,16.42,4,23.23,9.46a17.3,17.3,0,0,1,6.11,8.3c1.63,5.23.35,9.77-3.5,13.6a32.65,32.65,0,0,1-12.66,7.54c-3,1-6,1.75-9.06,2.58-0.91.25-1,.41-0.46,1.22,1.58,2.35,4,3.12,6.6,3.45s5.28,0.6,7.91,1a0.94,0.94,0,0,1,.58.68c0.07,0.85,0,1.71,0,2.57s-0.2,1.06-1,1C521.09,262.14,516.84,262.16,512.59,262.16Zm-24.78-20,0.27-.13c0.16-.7.3-1.41,0.48-2.11,0.66-2.5,1.84-4.61,4.37-5.65a11,11,0,0,1,12.28,3.27,17.37,17.37,0,0,1,2.91,6c0.26,0.9.46,1,1.13,0.29a14.71,14.71,0,0,0,3.57-5.7,19.36,19.36,0,0,0,.2-11,11.63,11.63,0,0,0-8.82-9,21.32,21.32,0,0,0-10.7-.07,11,11,0,0,0-7.61,6.07,19.47,19.47,0,0,0-1.67,9.65,13,13,0,0,0,2.6,7.32C487.12,241.42,487.48,241.77,487.82,242.14Zm9.78,3.33,0-.23h0.55c2.36,0,2.39,0,2.43-2.38,0.07-4.28-2.93-5.42-6.17-4.46-1.89.57-3.34,3.46-2.81,5.43a1.06,1.06,0,0,0,.69.59C494.08,244.8,495.84,245.13,497.6,245.47Z" transform="translate(-288.84 -87.57)"/><path class="cls-9" d="M351.57,231a6.48,6.48,0,0,0,.74.17,47,47,0,0,1,11.15,2.49,25.22,25.22,0,0,1,5.13,2.59,6.49,6.49,0,0,1-.13,11.16,20.68,20.68,0,0,1-7.17,2.68,78.23,78.23,0,0,1-15.6,1.21q-27.71,0-55.42,0H289c0.4-.3.57-0.44,0.76-0.56,4.26-2.65,8.51-5.3,12.78-7.93a1.6,1.6,0,0,0,.85-1.56q0-9.82,0-19.64a1.69,1.69,0,0,0-.9-1.63c-4.42-2.78-8.82-5.6-13.43-8.53,0.46,0,.7-0.09.94-0.09,19.61,0,39.21,0,58.82,0a30.62,30.62,0,0,1,14.14,3,16.29,16.29,0,0,1,3.91,2.82c2.42,2.38,3.06,6.87-1.16,9.44a22.92,22.92,0,0,1-7.16,2.72c-1.85.4-3.72,0.68-5.58,1-0.47.09-.93,0.21-1.4,0.32V231Zm-17.11,4.06c-3.18,0-6.35,0-9.53,0a0.85,0.85,0,0,0-1,1c0,2.35,0,4.7,0,7.06,0,1.19,0,1.25,1.23,1.25,5.32,0,10.63,0,15.95,0a13.94,13.94,0,0,0,5.57-.9,3.77,3.77,0,0,0,2.62-3.7,4,4,0,0,0-2.72-4.05,10.42,10.42,0,0,0-3.2-.62C340.38,235,337.42,235.07,334.45,235.07Zm-0.64-7.83h6.79c1.22-.09,2.45-0.09,3.64-0.3a4.12,4.12,0,0,0,.53-8.13,10,10,0,0,0-2.87-.49c-5.66,0-11.31,0-17,0a0.87,0.87,0,0,0-1,1.08c0,2.26,0,4.53,0,6.79a0.9,0.9,0,0,0,1.12,1.1C327.94,227.22,330.88,227.25,333.82,227.25Z" transform="translate(-288.84 -87.57)"/><path class="cls-9" d="M374.31,211.46c4.21-.39,61.65-0.13,63.38.29a17.23,17.23,0,0,0-6.39,7.47l-0.55-.13a24.21,24.21,0,0,0-4.11-.76c-5.44-.09-10.89,0-16.33-0.05-0.9,0-1.26.23-1.24,1.18,0.05,2.23,0,4.46,0,6.7a0.88,0.88,0,0,0,1,1.09c5.75,0,11.5,0,17.25-.05a26.41,26.41,0,0,0,3.79-.59c0.33,0.51.71,1.16,1.15,1.78a3.7,3.7,0,0,0,5.28,1.24,12.48,12.48,0,0,0,4-3.68,52.83,52.83,0,0,0,5.7-10.21l0.6-1.31c4.11,0.64,7.26,6.11,5.54,9.58a7.74,7.74,0,0,1-3.77,3.35,33.19,33.19,0,0,1-9.1,2.69c-1.27.23-2.56,0.42-3.84,0.63l0,0.31a7.64,7.64,0,0,0,.87.21,46,46,0,0,1,12.51,3,20.1,20.1,0,0,1,4.39,2.61,6.41,6.41,0,0,1-.25,10.16,19,19,0,0,1-7.67,3.1,74,74,0,0,1-15,1.22q-28.12,0-56.24,0h-1.15c0.37-.28.53-0.43,0.71-0.54,4.23-2.63,8.45-5.28,12.7-7.88a1.73,1.73,0,0,0,1-1.68q0-9.77,0-19.54a1.76,1.76,0,0,0-.95-1.69c-4.24-2.67-8.46-5.38-12.69-8.07Zm45.33,23.61c-3.18,0-6.36,0-9.53,0a0.85,0.85,0,0,0-1,1c0,2.35,0,4.71,0,7.06,0,1.18.06,1.25,1.24,1.25,5.29,0,10.57.07,15.86,0a22.91,22.91,0,0,0,5.56-.88,3.52,3.52,0,0,0,2.71-3.61,4.1,4.1,0,0,0-2.73-4.15,10.57,10.57,0,0,0-3.21-.61C425.57,235,422.61,235.07,419.64,235.07Z" transform="translate(-288.84 -87.57)"/><path class="cls-10" d="M446,205.56c-0.53.41-1,.83-1.59,1.22a7.49,7.49,0,0,1-3.9,1.45,4.34,4.34,0,0,1-4.41-2.8c-0.13-.33-0.24-0.67-0.4-1.13l-0.93,1a9.33,9.33,0,0,1-5.91,3.22,8.35,8.35,0,0,1-3.56-.54c-1.81-.7-2.56-2.82-2.2-5.25a22,22,0,0,1,2.76-7.43c1.12-2,2.35-4,3.47-6a7.58,7.58,0,0,0,.48-1.74,7.75,7.75,0,0,0-1.78.5,22.88,22.88,0,0,0-8.65,8.29c-2.07,3.48-3.8,7.17-5.7,10.76a11.11,11.11,0,0,1-.81,1.16,13.71,13.71,0,0,1-1.13-1.12,4.55,4.55,0,0,1-.46-1l-0.82.55a8.81,8.81,0,0,1-5.21,1.77c-2.33,0-3.57-1-4.42-3.43l-0.75.65a9.7,9.7,0,0,1-5.49,2.73c-2.48.27-5.56-.6-6.2-3.85a7,7,0,0,1,.67-4.64c1.1-2.11,2.28-4.18,3.48-6.24,0.92-1.58,1.94-3.11,2.88-4.69a3.92,3.92,0,0,0,.27-1.09,3.45,3.45,0,0,0-1.18.19,19.38,19.38,0,0,0-2.67,1.75A42,42,0,0,0,381,204.07c-0.64,1.29-1.22,2.6-1.85,3.89-0.49,1-1,1.07-1.65.15a5.29,5.29,0,0,1-.62-4.32,17.92,17.92,0,0,1,2.48-6.07c1.59-2.68,3.23-5.33,4.83-8a7.43,7.43,0,0,0,.66-1.4c0.21-.6,0-1-0.67-0.67a11.56,11.56,0,0,0-2.17,1.17A29.32,29.32,0,0,0,373.7,198c-1.71,3-3.15,6.13-4.73,9.2a6.8,6.8,0,0,1-.86,1.07,13.79,13.79,0,0,1-1.11-1,4.19,4.19,0,0,1-.45-0.91l-0.8.58a7.09,7.09,0,0,1-5.65,1.56,4.31,4.31,0,0,1-3.74-3.72c0-.27-0.11-0.54-0.2-1-0.39.42-.7,0.77-1,1.11a9.64,9.64,0,0,1-5.21,3.21,4.45,4.45,0,0,1-5.47-3.36c-0.06-.2-0.13-0.41-0.24-0.74l-0.75.69a11.42,11.42,0,0,1-6.51,3.48c-3.06.35-5.79-1-6.1-4.73a21,21,0,0,1,1.38-8.35,61.72,61.72,0,0,1,13.63-22.9c1.26-1.36,2.14-1.3,3.28.2,1.33,1.76,1.2,3.72.7,5.7a25.66,25.66,0,0,1-6.5,11.33c-2,2.16-4.43,4-6.66,6a1.9,1.9,0,0,0-.56.58,21.11,21.11,0,0,0-2,8.13c0,2.24,1.35,3.15,3.4,2.22a11.34,11.34,0,0,0,2.95-2,19.29,19.29,0,0,0,4.74-6.76A26,26,0,0,1,354.8,186a11.21,11.21,0,0,1,3.67-1.58c2.66-.63,4.22.53,4.67,3.22,0,0.15,0,.3.08,0.71,0.5-.84.88-1.5,1.28-2.14a15.38,15.38,0,0,1,1-1.53c0.52-.65.9-0.62,1.34,0.1a5,5,0,0,1,.41,4.25,30.78,30.78,0,0,1-2.06,4.47c-1.4,2.64-3,5.2-4.3,7.88a12.17,12.17,0,0,0-1,3.94,1.43,1.43,0,0,0,2,1.55,5.27,5.27,0,0,0,1.7-.86,11.53,11.53,0,0,0,3.82-4.9,91.76,91.76,0,0,1,8.73-16.39c0.58-.89,1-0.85,1.46.14a6.93,6.93,0,0,1,.11,4.84c-0.07.26-.15,0.52-0.23,0.78l0.24,0.22a5.46,5.46,0,0,1,.53-0.76,24.36,24.36,0,0,1,6.09-4.81c2.69-1.41,4.53-.3,4.65,2.77,0,0.7,0,1.39,0,2.16,0.23-.2.46-0.43,0.72-0.61a66.11,66.11,0,0,1,5.69-4c3.25-1.84,4.13.37,4.12,2.69a8.91,8.91,0,0,1-1.33,4.52c-1.38,2.35-2.81,4.66-4.18,7a8.17,8.17,0,0,0-1.37,4.49c0.08,2.15,1.75,3.13,3.62,2a7.85,7.85,0,0,0,1.89-1.58,20.57,20.57,0,0,0,3.79-6,67,67,0,0,1,6.84-12.73A5,5,0,0,1,410,185a5.39,5.39,0,0,1,.95,1.26,6.45,6.45,0,0,1-.54,5.14c-1,2-2.12,3.86-3.06,5.84s-1.85,4.24-2.74,6.38a3.13,3.13,0,0,0-.15,1.08c-0.06,1.9.93,2.64,2.66,1.84a8.91,8.91,0,0,0,4.78-4.94,85.7,85.7,0,0,1,7-13.37c0.67-1.1,1.38-2.17,2.1-3.23a1.43,1.43,0,0,1,.77-0.65,1.62,1.62,0,0,1,.77.82,6.73,6.73,0,0,1,.2,4.23c0,0.23-.08.46-0.16,0.91,0.77-.73,1.34-1.36,2-1.88a39.74,39.74,0,0,1,4.44-3.21c2.27-1.29,4.5,0,4.79,2.66a5.29,5.29,0,0,1-.64,3.27c-1.3,2.29-2.62,4.56-3.88,6.86-1,1.9-2.16,3.78-2.31,6-0.07,1-.11,2,0.91,2.6a2.49,2.49,0,0,0,2.81-.49,16.56,16.56,0,0,0,5.47-7.32,25.36,25.36,0,0,1,10.37-12.9,11.8,11.8,0,0,1,3.74-1.37,3.17,3.17,0,0,1,3.92,2.66c0.06,0.29.13,0.58,0.24,1,0.66-1.09,1.21-2.07,1.83-3a1.51,1.51,0,0,1,.91-0.74,1.6,1.6,0,0,1,.93.87,6.29,6.29,0,0,1-.37,5.48c-1.14,2.37-2.38,4.68-3.52,7-1.4,2.88-2.76,5.79-4.13,8.69-0.11.24-.2,0.49-0.38,0.93,0.46-.22.76-0.35,1-0.5a29.69,29.69,0,0,0,9.1-7.72,6.16,6.16,0,0,1,1.07-.86,3.43,3.43,0,0,1,.11,1.53,17.58,17.58,0,0,1-2.1,3.61,18.75,18.75,0,0,1-8.34,5.48,4.76,4.76,0,0,0-2.9,2.91c-1.62,3.62-3.32,7.21-5.24,10.68a21.42,21.42,0,0,1-3.83,4.87c-2.69,2.61-4.65,2.16-6.37-1.17a7.41,7.41,0,0,1-.18-6.21c1.38-3.79,4.15-6.36,7.52-8.34,1.36-.8,2.85-1.39,4.25-2.13a2.21,2.21,0,0,0,.93-0.89c0.49-1,.88-2.07,1.31-3.11Zm-84.46-16.09c0-2.09-.69-2.58-2.1-2a7.59,7.59,0,0,0-1.72,1,27.83,27.83,0,0,0-8.83,12.25,12.56,12.56,0,0,0-.69,3.39c-0.14,2,1.11,2.82,2.84,1.81a11.47,11.47,0,0,0,2.78-2.34,40.9,40.9,0,0,0,6.73-11.06A28.25,28.25,0,0,0,361.55,189.47Zm91.22,0c0-2-.67-2.5-2-1.88a8.26,8.26,0,0,0-1.79,1.09,27.43,27.43,0,0,0-8.42,11.24,15,15,0,0,0-1,4.52c-0.12,1.84,1.18,2.58,2.78,1.64a11,11,0,0,0,2.71-2.28A41.75,41.75,0,0,0,452,192.14,22.94,22.94,0,0,0,452.77,189.49Zm-115.27,3.7c0.88-.81,1.66-1.47,2.37-2.2a32,32,0,0,0,7.94-12.59,10,10,0,0,0,.24-1.52C346.29,177.32,338,190.19,337.5,193.19Zm105.95,18.87-0.22-.17c-4.36,2.84-7.65,6.53-9,11.7a4.54,4.54,0,0,0-.14,1.54c0.07,0.78.51,1,1.09,0.46a13.43,13.43,0,0,0,1.81-1.93,52.23,52.23,0,0,0,5.52-9.47C442.83,213.5,443.13,212.78,443.45,212.06Z" transform="translate(-288.84 -87.57)"/><path class="cls-10" d="M484.31,177.69a4.54,4.54,0,0,1-3.65-2.44c-0.25-.51-0.23-0.83.42-1,3.57-.91,7.11-1.94,10.71-2.74a17.53,17.53,0,0,1,4.71-.27,4.86,4.86,0,0,1,3.82,2.4,9.72,9.72,0,0,1,.93,9.19,18.87,18.87,0,0,1-7.39,8.87,26.58,26.58,0,0,1-11.53,4.63,16.56,16.56,0,0,1-3.5-.31l-5.58,12.25a2.64,2.64,0,0,1-1.39-2.09,9.58,9.58,0,0,1,.7-5.2,110.69,110.69,0,0,1,8-16.94c1-1.87,2.17-3.68,3.26-5.52C484,178.27,484.13,178,484.31,177.69Zm-3.65,14.9c0.89-.2,1.48-0.31,2.07-0.46,5.42-1.42,10.19-3.92,13.83-8.29a11.56,11.56,0,0,0,2.58-5c0.57-2.71-.79-4.33-3.46-3.78a73.82,73.82,0,0,0-7.35,2.18,1.22,1.22,0,0,0-.47.76,25.4,25.4,0,0,1-1.1,3.66c-1,2.14-2.28,4.18-3.45,6.26Z" transform="translate(-288.84 -87.57)"/><path class="cls-10" d="M523,181.07a5.37,5.37,0,0,1,1.37.26,9.06,9.06,0,0,1,1.88,1.2,2.58,2.58,0,0,1,.41,1.05,5.68,5.68,0,0,1-1.07.29c-1.22.09-2.44,0.08-3.65,0.22a1.47,1.47,0,0,0-1,.65c-2.56,4.62-5.11,9.25-7.59,13.91a10,10,0,0,0-1.2,5.39c0.17,2.56,2.15,3.73,4.26,2.27a19.43,19.43,0,0,0,3.83-3.75,39.52,39.52,0,0,0,2.47-4,3.78,3.78,0,0,1,.77-0.69,3.48,3.48,0,0,1,.52.9,2.66,2.66,0,0,1,0,1.08c-0.71,3.62-4.93,7.75-8.54,8.39a5.29,5.29,0,0,1-6.32-3.69l-0.24-.65-0.74.86a10,10,0,0,1-6,3.48c-4,.63-6.42-1.79-5.63-5.82a25.24,25.24,0,0,1,1.53-4.87A67.92,67.92,0,0,1,504.39,186a5.67,5.67,0,0,1,1.26-1,6.06,6.06,0,0,1,1,1.47,7,7,0,0,1-.74,5.22c-0.94,1.88-2.05,3.68-3,5.59-1,2.09-1.84,4.24-2.73,6.38a2.68,2.68,0,0,0-.13.9c-0.09,2.1,1,2.87,2.86,1.87a11.78,11.78,0,0,0,3-2.35A21.32,21.32,0,0,0,509.6,198c1.82-4.07,3.89-8,5.85-12,0.19-.38.39-0.75,0.62-1.19a11.49,11.49,0,0,1-2-.45,7.51,7.51,0,0,1-1.75-1.12,0.88,0.88,0,0,1-.22-0.81,1,1,0,0,1,.76-0.33c1.43-.09,2.87-0.08,4.3-0.21a1.59,1.59,0,0,0,1-.68c1.26-2,2.47-4,3.7-6a5.39,5.39,0,0,1,.6-0.81c0.52-.57.94-0.51,1.23,0.21a6,6,0,0,1,.13,4C523.6,179.37,523.3,180.2,523,181.07Z" transform="translate(-288.84 -87.57)"/><path class="cls-10" d="M322.26,176.71a4.47,4.47,0,0,1-2.23-2.86c-0.15-.57,0-0.82.61-0.8,4.37,0.14,8.61-1,12.92-1.37a11.79,11.79,0,0,1,3.78.37,3.69,3.69,0,0,1,2.31,2.22c0.36,0.76.17,1-.69,1.11-2.4.24-4.8,0.46-7.18,0.76-1.45.18-2.89,0.48-4.32,0.77a1.18,1.18,0,0,0-.71.48q-3.71,6.38-7.37,12.78a0.57,0.57,0,0,0,0,.18,31.79,31.79,0,0,1,3.21-.33,13.69,13.69,0,0,1,3.25.31,3.14,3.14,0,0,1,2.17,2.19c0.27,0.75.07,0.94-.71,1.05-3.35.47-6.7,1-10,1.51a1.6,1.6,0,0,0-1,.82c-1.9,3.86-3.76,7.74-5.63,11.62-0.51,1.06-.86,1.12-1.55.17a4.24,4.24,0,0,1-.54-3.78,46.24,46.24,0,0,1,2.21-6.19,193.79,193.79,0,0,1,10.79-20Z" transform="translate(-288.84 -87.57)"/><path class="cls-10" d="M415.37,182.34a5.52,5.52,0,0,1-.08.66,2.11,2.11,0,0,1-1.51,1.88,2.14,2.14,0,0,1-2.21-1,3.69,3.69,0,0,1-.28-4.12,1.63,1.63,0,0,1,2.43-.59A3.65,3.65,0,0,1,415.37,182.34Z" transform="translate(-288.84 -87.57)"/><path class="cls-10" d="M511,182.33c0,0.16,0,.37-0.06.58a2.13,2.13,0,0,1-1.52,2,2.16,2.16,0,0,1-2.26-1.06,3.69,3.69,0,0,1-.22-4,1.63,1.63,0,0,1,2.43-.59A3.64,3.64,0,0,1,511,182.33Z" transform="translate(-288.84 -87.57)"/><path class="cls-11" d="M419.75,138.38l-1.68-5.19C418.77,133.8,419.81,136.91,419.75,138.38Z" transform="translate(-288.84 -87.57)"/><path class="cls-11" d="M415.88,134.93v-4.09h0.19V135Z" transform="translate(-288.84 -87.57)"/><path class="cls-11" d="M472.09,170.67L472,169.6a1.8,1.8,0,0,1,.61.14,4.23,4.23,0,0,1-.08.94h-0.45Z" transform="translate(-288.84 -87.57)"/><path class="cls-11" d="M406.28,136.72l0.31-3.48h0.1l-0.19,3.49Z" transform="translate(-288.84 -87.57)"/><path class="cls-12" d="M410.65,106.37a5.2,5.2,0,0,1,2.72,1.38,6.14,6.14,0,0,1,1.5,5c-0.08,1.37-.26,2.73-0.39,4.1a1,1,0,0,0,.18.73c0.6-1.23,1.15-2.49,1.8-3.69a5.5,5.5,0,0,1,3.13-2.94,4.34,4.34,0,0,1-.34.78c-0.75,1-1.55,1.89-2.26,2.89a5.71,5.71,0,0,0-.78,4,6.6,6.6,0,0,1,1-.76,2.2,2.2,0,0,1,.76-0.09,2.41,2.41,0,0,1-.07.74c-0.53,1.23-1.17,2.42-1.61,3.68a7.47,7.47,0,0,0-.24,2.31c0,1.31,0,2.63.07,3.94a16.58,16.58,0,0,0,.28,2.36,2,2,0,0,0,.44.68,2.31,2.31,0,0,1,.19-1.11,3.75,3.75,0,0,1,1.46.09,15.57,15.57,0,0,1,0-10.73,26.25,26.25,0,0,1,1.17-2.4l0.25,0.11c-0.13.67-.27,1.34-0.38,2a7.35,7.35,0,0,0,1.73,6.13,12.33,12.33,0,0,1,2.67,6.54,3.47,3.47,0,0,0,.08.45,0.54,0.54,0,0,0,.1.15,2.88,2.88,0,0,0,.4-2.72c-0.28-.92-0.68-1.8-1-2.69l0.2-.19a16.9,16.9,0,0,1,1.68,1.64,11,11,0,0,1,2.08,8.3c-0.35,3.28-.63,6.56-0.87,9.85a25.86,25.86,0,0,0,.11,3.73,0.93,0.93,0,0,0,.66.52,20.4,20.4,0,0,0,2.05.16c1.66-2.78,1.58-6.05,1.92-9.26,2,2.23,2,4.86,1.54,7.55,0.93-2,1.8-4.08,2.81-6.07a7.12,7.12,0,0,1,5.1-4c-0.74,1.58-1.6,3.11-1.2,5,0.16-.33.34-0.64,0.49-1a7.08,7.08,0,0,1,3-3.5c2.52-1.41,3.09-3.24,2.74-6.88-0.05-.57-0.19-1.13-0.29-1.69l0.28-.1c0.4,1.08.88,2.13,1.2,3.23,0.9,3.17,1.05,6.29-1.11,9.08-0.63.82-1.42,1.52-2.08,2.32-1.31,1.57-1.18,2.7.42,4,0.87,0.7,1.71.52,2-.53a16.2,16.2,0,0,0,.39-2.24,2.19,2.19,0,0,1,.18-0.69,13.74,13.74,0,0,1,1.84,4.71,7.31,7.31,0,0,1-.55,4.38c-1.11,2.61-2.2,5.25-3.07,7.95a12.06,12.06,0,0,0-.42,4.15c0.07,1.63,1.47,2.46,3.11,2.32,0.68-.06,1.38.27,2.09-0.07a5.07,5.07,0,0,0,2.84-3.81,20,20,0,0,0-.12-7.18,4.66,4.66,0,0,1,0-.54c2,1.52,2.55,3.73,3.52,5.79-1-5.35,0-10,4.3-13.67-0.15.34-.29,0.69-0.45,1a13,13,0,0,0-1.56,6.62,2.8,2.8,0,0,0,1.47,2.57,1.71,1.71,0,0,0,2.59-1,12.18,12.18,0,0,0,.47-5.24,15.05,15.05,0,0,1,0-3.19,2.1,2.1,0,0,1,2-2,2.12,2.12,0,0,1,2.26,1.86,4.88,4.88,0,0,1-.31,1.66,1.82,1.82,0,0,1-.43-0.2c-0.91-1.05-1.63-.92-2.17.41a4.84,4.84,0,0,0,1.32,5.12,1.59,1.59,0,0,0,2.11,0,4.64,4.64,0,0,0,1.81-3.56,9.69,9.69,0,0,0-3.92-8.45c-0.14-.11-0.29-0.22-0.42-0.34a0.81,0.81,0,0,1,0-.29c3.19,0.07,5.11,2,6.71,4.49,0.2-2.94.81-5.61,3.23-7.46a8.57,8.57,0,0,1,5.21-2,0.7,0.7,0,0,1,0,.31c-2.14,2.1-2.73,4.77-2.75,7.62a33.84,33.84,0,0,0,2.63,12.11,2.34,2.34,0,0,0,.37.42,16.33,16.33,0,0,0,.69-7,10,10,0,0,1,2.91,6.11,59.23,59.23,0,0,1-.17,6.83c0.59-.54,1.28-0.33,2,0.25l-0.46-1,1.71,0.37c0.89-.92,1.25-1,2-0.36-0.75-4.57-.24-8.66,3.68-11.59l0.27,0.1a8.44,8.44,0,0,0-.54,1.18,9.69,9.69,0,0,0-.41,1.94,1.39,1.39,0,0,0,1.33,1.48,1.75,1.75,0,0,0,1.47-.54,11.24,11.24,0,0,0,1.45-3.41c1.13-6.08.93-12-2-17.65a2.17,2.17,0,0,1-.05-0.41,7,7,0,0,1,.72.63,26,26,0,0,1,5.52,10.24,18.81,18.81,0,0,1,.62,7.26c-0.44,3.23-1,6.45-1.45,9.67-0.12.8-.19,1.62-0.29,2.51l-2.13-.39c0.45-2.5,1-5,.65-7.53l-0.33-.06c-0.13.59-.25,1.19-0.41,1.78a10.74,10.74,0,0,1-.65,2.09,2.24,2.24,0,0,1-3.63.68,4.7,4.7,0,0,1-1.56-2.93,2.53,2.53,0,0,0-.36-1c-0.44,2.35-.76,4.67.55,7-1.33.42-2.55,0.85-3.8,1.18-2.46.64-4.93,1.28-7.42,1.8a4.56,4.56,0,0,0-3.36,6.71,25.7,25.7,0,0,0,1.6,2.51,127.3,127.3,0,0,0-9.67,19.7c-1.86-2.12-2.05-2.18-3.72-1.23a4.57,4.57,0,0,0-4.55-3.27c0.39-.88.77-1.66,1.1-2.46a11.78,11.78,0,0,0,.4-8.06,3.44,3.44,0,0,0-.11-0.35c-0.47-1.12-.18-1.81,1.09-2.42a8.87,8.87,0,0,0,.2,1.14c0.63,2,1.19,4,1.95,5.95,0.68,1.74,2.32,2.63,3.82,3.57a1,1,0,0,0,.68-0.27,0.49,0.49,0,0,0,.08-0.43c-0.55-1.82.36-3.25,1.16-4.74a22.26,22.26,0,0,0,1-2.52l1.89,0.68c-0.14-.59-0.19-0.92-0.29-1.25-0.48-1.55-.74-3,0.78-4.25a1.75,1.75,0,0,0,.07-2.41,3.62,3.62,0,0,1-.53-4.57,6.07,6.07,0,0,0,.32-1.07,9.25,9.25,0,0,0-1.29.11,3.32,3.32,0,0,0-.77.35c-0.61-1.26-1.28-2.46-1.78-3.72a4.32,4.32,0,0,1-.37-2.27,28.87,28.87,0,0,1,1.22-3.64c0.18-.53.33-1.06,0.5-1.59l-0.29-.14a3.76,3.76,0,0,0-.49.64,10.11,10.11,0,0,1-3.17,3.74,8.58,8.58,0,0,0-3.35,5.08c-0.39,1.62-1,3.19-1.6,4.92-1.06-1.26-2.3-2.42-2.2-4.61a8.83,8.83,0,0,0-1.71,3.75h-0.25l-0.36-.75a3.74,3.74,0,0,0-3.32-2,0.67,0.67,0,0,0-.74.8c0.2,2.74.4,5.48,0.61,8.22a7.44,7.44,0,0,0,.27,1,4.78,4.78,0,0,1-1.17,0,11.41,11.41,0,0,0-9.08,1.2,30.18,30.18,0,0,0-7,5.61l-0.21-4.37a4.34,4.34,0,0,0,.92.16c1.33-.12,2.06-0.46,1.54-1.83-0.41-1.08-.94-2.12-1.34-3.21a1.89,1.89,0,0,1,0-1.24c0.52-1.31,1.24-2.54,1.65-3.87a5.32,5.32,0,0,0,.17-2.85c-0.57-2-1.4-3.93-2.13-5.89l-0.35.06c-0.06.4-.12,0.79-0.18,1.19a40.1,40.1,0,0,1-.66,4.06,2.9,2.9,0,0,1-4.14,1.7,3.49,3.49,0,0,1-1.52-3.91,6,6,0,0,1,3.72-4.24,0.8,0.8,0,0,0,.2-0.17,4,4,0,0,0-5.15-.58c-1.46,1-2.8,2.17-4.19,3.26l-1,.79-1.78-7.16-0.89,2.44-0.35-.09,0.45-2.71-0.78.41a18.15,18.15,0,0,1-2.55,1.37c-1.52.53-3.19,0.72-4,2.5l-0.27-.31a5.13,5.13,0,0,1,1-1.18c1.32-.84,1.14-1.41-0.42-2.31l-1.36,4.92-0.26,0a14.41,14.41,0,0,1-1.13-8c-2.34,1-2.85,2.81-2.69,5a1.08,1.08,0,0,1-.36-0.14c-0.22-1.09-.95-1.23-1.91-1.16-0.72.06-1.45-.08-2.17-0.1a1.52,1.52,0,0,0-.53.2l1.73,1.87c-1.34-.47-2.57-0.83-3.75-1.33-1-.42-1.94-1-3.07-1.57l0.11,2.19c-1.07-.19-0.75-1-0.88-1.59-1.18,2-1.27,4.32-2,6.62a8,8,0,0,1-.73-0.46c-1.33-1.07-2.63-2.19-4-3.22a4.25,4.25,0,0,0-5.68.3,6.23,6.23,0,0,1,3.44,3,3.86,3.86,0,0,1,.2,4.09,2.84,2.84,0,0,1-5.3-.51c-0.36-1.54-.52-3.13-0.76-4.69,0-.17,0-0.35,0-0.66a1.48,1.48,0,0,0-.39.34c-0.74,1.91-1.49,3.81-2.19,5.73-0.48,1.32.11,2.54,0.54,3.73,0.37,1,.94,1.92,1.34,2.91a2.36,2.36,0,0,1,0,1.26,6.76,6.76,0,0,1-.49,1.08c-0.72,1.8-.72,1.8-2.44,2.75-1.26-2-3.06-2.49-5.29-2s-3,2.63-4.18,4.08c-0.67-1-1.31-2-2-3a1.67,1.67,0,0,0-.68-0.59,1.64,1.64,0,0,1-1-2c0.21-2.37.34-4.74,0.53-7.11a0.74,0.74,0,0,0-.82-0.93,3.77,3.77,0,0,0-3.29,2.11c-0.11.21-.19,0.43-0.4,0.89l-1.56-3.87-0.29,0c0.13,2-1.1,3.26-2.2,4.57l-0.3-.09a5.65,5.65,0,0,0-.14-0.86c-0.7-2.16-1.32-4.35-2.18-6.44a6.29,6.29,0,0,0-1.88-2.21,13.45,13.45,0,0,1-3.8-4.4,1.53,1.53,0,0,0-.3-0.33l-0.26.05a6,6,0,0,0,.2,1.1c0.41,1.08.92,2.14,1.3,3.23a3.79,3.79,0,0,1-.72,4c-3.77-2.78-6.87-1.6-9.38,1.55l-5.4-3.06a2,2,0,0,1,1.84-1.36A12.61,12.61,0,0,1,341.29,154c0,2.33-.08,4.61.77,6.77l0.26,0a32.24,32.24,0,0,0,1.1-3,59,59,0,0,0,1.42-6.33,13.94,13.94,0,0,0-.71-7.91,19.13,19.13,0,0,0-1.44-2.32c-0.12-.19-0.28-0.35-0.57-0.72a9,9,0,0,1,6.39,2.93c1.68,1.79,2.08,4.08,2.21,6.75,1.72-2.62,3.56-4.64,6.94-4.69a4.2,4.2,0,0,1-.53.61,9.63,9.63,0,0,0-4,7.2,5.69,5.69,0,0,0,1.29,4.45,1.92,1.92,0,0,0,3.08,0c1.23-1.32,1.13-2.91.93-4.47a2.38,2.38,0,0,0-1.12-1.44,3.3,3.3,0,0,0-1.31.75c-0.8-.74-0.79-1.58.13-2.67a2,2,0,0,1,2.64-.28c1.17,1,1.15,2.27,1.11,3.61-0.06,1.55-.11,3.11-0.08,4.67a4.74,4.74,0,0,0,.4,1.68,2,2,0,0,0,1.84,1.41,2.51,2.51,0,0,0,2-1.66,7.39,7.39,0,0,0-.2-4.95c-0.39-1.16-.9-2.27-1.35-3.4a5,5,0,0,1-.14-0.69c4.23,3.82,5.11,8.44,4.24,13.67,1-2,1.56-4.14,3.36-5.55a0.52,0.52,0,0,1,.16.15c-0.11,1.94-.36,3.89-0.31,5.83,0.08,2.74.8,4.54,3.23,5.53a3,3,0,0,0,1.12,0A3.25,3.25,0,0,1,375,170a2.53,2.53,0,0,0,3.05-2.13,11.5,11.5,0,0,0-.74-5.49c-0.83-2.2-1.65-4.42-2.66-6.54a8,8,0,0,1-.12-6.49c0.35-1,.76-1.91,1.14-2.86l0.23,0c0,0.18.1,0.35,0.13,0.53a22.23,22.23,0,0,0,.4,2.33c0.32,1.13,1.2,1.31,2.09.51,1.62-1.47,1.68-2.2.3-3.92a10.3,10.3,0,0,0-1-1.16c-2.35-2.17-3-4.92-2.59-8a11.44,11.44,0,0,1,1.95-5.37,4,4,0,0,1-.07.65,8.82,8.82,0,0,0,.25,5.5,4.28,4.28,0,0,0,1.62,1.91,8.86,8.86,0,0,1,3.89,4.58,3.08,3.08,0,0,0,.49.6,8.48,8.48,0,0,0-1.52-5.08l0.21-.2a14.59,14.59,0,0,1,1.55.59c2.32,1.19,3.5,3.35,4.53,5.58,0.61,1.32,1.05,2.71,1.68,4.07-0.38-2.73-.45-5.37,1.45-7.61l0.31,0a11.06,11.06,0,0,1,.14,1.68,17,17,0,0,0,2.22,9.14,0.75,0.75,0,0,0,.34.29c-0.94-1.25-.39-1.91.7-2.57a2.76,2.76,0,0,0,1.16-2.74c-0.19-2.4-.43-4.79-0.64-7.18-0.15-1.73-.44-3.46-0.42-5.19a10.21,10.21,0,0,1,3.41-7.91,1.68,1.68,0,0,1,.71-0.35c-0.69,1.85-1.68,3.66-.6,5.69,0.15-.73.28-1.46,0.44-2.19a11.76,11.76,0,0,1,2.45-5.18,7.48,7.48,0,0,0,1.42-7.31,1.8,1.8,0,0,1-.06-0.81,8.26,8.26,0,0,1,1.88,4,19.74,19.74,0,0,1,.34,4.55,37.86,37.86,0,0,1-.74,4.54l1.07-.15c0.63-1.49.43-3.25,1.74-4.69a17.26,17.26,0,0,0-2.32-7,2.63,2.63,0,0,1-.16-0.87,3,3,0,0,1,1,.22c0.22,0.14.31,0.49,0.58,0.65,0.19-1.76.15-3.37-1.09-4.67a17.11,17.11,0,0,1-4.33-9.13,17.8,17.8,0,0,1,1.91-12.56,14.64,14.64,0,0,1,4.46-4.67,0.76,0.76,0,0,1,.3,0c0,0.74-.13,1.46-0.1,2.18,0,0.43.1,1,.81,0.71a3.45,3.45,0,0,1,2.79-.31,5.68,5.68,0,0,1,3.27,2.65,8.75,8.75,0,0,1,1,5.28A3.31,3.31,0,0,0,411,96a3.92,3.92,0,0,0-2.21,1.54c1.11,0.08,1.94.2,2.49,1.06a5,5,0,0,1-.58,5.64,8.79,8.79,0,0,1-.1-1.12c0.05-1.19-.44-2-1.33-2.07a2.25,2.25,0,0,0-2.37,1.85,7.84,7.84,0,0,0,1.24,5,7.19,7.19,0,0,0,1.33,1.61,3.05,3.05,0,0,0,1.34.7,1,1,0,0,0,1.15-1.33,10.25,10.25,0,0,0-.74-1.47C411.09,107.12,410.94,106.87,410.65,106.37Zm9.1,32c0.06-1.46-1-4.58-1.68-5.19Zm-3.86-3.45,0.19,0.08v-4.17h-0.19v4.09Zm56.21,35.74h0.45a4.23,4.23,0,0,0,.08-0.94,1.8,1.8,0,0,0-.61-0.14Zm-65.81-33.95,0.23,0,0.19-3.49h-0.1Z" transform="translate(-288.84 -87.57)"/><path class="cls-12" d="M316.37,169l0.89-.26a0.4,0.4,0,0,1,.17.06,1.53,1.53,0,0,1-.42,1.73c-1.52,2-1.3,4.23-.34,6.41a1.16,1.16,0,0,1-.05,1.24c-1.7,3-3.4,6-5,9-1.2,2.22-2.29,4.5-3.44,6.75a1.77,1.77,0,0,1-.77.77,10.46,10.46,0,0,1,0-2c0.36-1.83.85-3.63,1.22-5.46a7.79,7.79,0,0,0-.17-4.78,3.51,3.51,0,0,0-2.63-2.2,1.17,1.17,0,0,0-.36,0,1.49,1.49,0,0,0-.34.17c0.15,0.29.27,0.59,0.44,0.85a6.16,6.16,0,0,1,.86,4.49,3.33,3.33,0,0,1-3.25,2.78,2.18,2.18,0,0,1,.25-0.56c1.94-2.15,1.42-6.15-1.84-8a6.49,6.49,0,0,0-2.69-.68c-1.6-.11-3.21,0-4.81,0L294,179a21.51,21.51,0,0,1,2.8-1.48c1.22-.44,2.53-0.61,3.77-1a5.62,5.62,0,0,0,3.65-6.88,8.07,8.07,0,0,0-.68-1.28c-0.16-.29-0.3-0.6-0.49-1a3.7,3.7,0,0,1,3.57,3.35,7.36,7.36,0,0,1-1.47,4.9,3,3,0,0,0,3.07-1.71,8.36,8.36,0,0,0,.44-2.51c0.29-2.91-1-5.49-1.29-8.26a7,7,0,0,1,1.36-4.66,5.5,5.5,0,0,1,3-2.47c-0.23.4-.45,0.81-0.7,1.2a4.54,4.54,0,0,0,0,5c0.54,0.94.94,2,1.48,3.09,0.14-.32.21-0.56,0.33-0.77a22.32,22.32,0,0,1,1.28-2.2c0.81-1.12,2.92-1,3.87-.19a6,6,0,0,1,1.71,3.27c0.1,0.41-.1.78-0.52,0.51a1.3,1.3,0,0,0-1.76,0,8.91,8.91,0,0,0-1.15,2.21A1.94,1.94,0,0,0,316.37,169Zm-4.74,1.93a3,3,0,0,0-.35.61,6.51,6.51,0,0,1-3.1,4.74,3.09,3.09,0,0,0-.7.71,1.46,1.46,0,0,0,0,2.07,5.54,5.54,0,0,0,1,.92,6.85,6.85,0,0,1,2.45,2.9c0.18,0.39.42,0.76,0.6,1.08,0.49-.6.92-1.1,1.33-1.62,1.45-1.87,2.74-3.81,2.42-6.36a1.12,1.12,0,0,1,.06-0.54c0.35-.85-0.16-0.92-0.8-0.93-1,0-1.37-.6-0.89-1.54a10,10,0,0,1,.63-0.95l-0.18-.28-1.76.89Z" transform="translate(-288.84 -87.57)"/><path class="cls-12" d="M331.43,160.21c-0.07.37-.17,0.74-0.22,1.11a4.36,4.36,0,0,1-1.65,2.87,2.18,2.18,0,0,1-3.57-.8,18.64,18.64,0,0,1-.78-2.72,2.82,2.82,0,0,0-.41-1c-0.64,3.06.15,6,1,9.16l-6.12.3-0.12-.41,3.09-1.76,0.44,0.63,0.16,0-1-6.14c-0.75-4.44-1.38-8.88-.11-13.34a26.58,26.58,0,0,1,5.62-10.29,5.3,5.3,0,0,1,.59-0.47,5.08,5.08,0,0,1-.2.75,23.86,23.86,0,0,0-2.29,14.26c0.23,1.53.48,3.07,0.82,4.58a5.22,5.22,0,0,0,.87,1.7,1.4,1.4,0,0,0,1.7.73,1.61,1.61,0,0,0,1.29-1.84,10.33,10.33,0,0,0-.55-1.92,7.48,7.48,0,0,0-.46-0.9c2.3,1,5,4.12,4.07,11.83,0.87-.06,1.71-0.15,2.55-0.16a2,2,0,0,1,.71.3,2.32,2.32,0,0,1-.73,1,13.92,13.92,0,0,1-2,0c-1.11.07-2.22,0.22-3.55,0.36,1.92-2.48,1.5-5.11,1.2-7.73Z" transform="translate(-288.84 -87.57)"/><path class="cls-12" d="M508,172a3.29,3.29,0,0,1,.66.8,6.28,6.28,0,0,1,.23,1.3,5.47,5.47,0,0,0-1,.16c-0.74.25-1.45,0.56-2.21,0.86l-2-4.29,0.76-.21a1.2,1.2,0,0,1,.65-0.14,1.31,1.31,0,0,1,.24.63c1.17-1.21,1.37-3.6.26-4.72-0.54-.54-1.18-1.12-2.08-0.47a1.3,1.3,0,0,1-.67-0.28c0.46-1.41.74-2.92,2.23-3.74a2.76,2.76,0,0,1,3.4.5,7.56,7.56,0,0,1,.93,1.35,16.52,16.52,0,0,1,.67,1.69c0.3-.73.48-1.22,0.7-1.7,0.44-1,.94-1.91,1.33-2.9,0.57-1.47,0-2.75-.79-4-0.15-.25-0.33-0.49-0.5-0.74l0.2-.26a13.75,13.75,0,0,1,1.84,1.4,7.62,7.62,0,0,1,2.07,7.58c-0.46,1.76-.78,3.57-1.12,5.36a6.4,6.4,0,0,0,.58,3.66,0.87,0.87,0,0,0,1.24.56,0.77,0.77,0,0,0,.52-1.21,4.41,4.41,0,0,1,.13-3.63c0.59-1.43,1.82-1.92,3.3-2.2a3.23,3.23,0,0,1-.38.7,3.92,3.92,0,0,0-1,3.75,2.87,2.87,0,0,1-.52,2.52c-0.77,1.15-1.49,2.34-2.2,3.47a21.93,21.93,0,0,1-2.5-2.63,20.46,20.46,0,0,1-1.56-3.27,5.2,5.2,0,0,1-.22-0.82l-0.29-.07-0.76,1.37-1.92-.8Z" transform="translate(-288.84 -87.57)"/><path class="cls-12" d="M407.16,268.43c-0.82-.72-1.7-1.4-2.48-2.18-2.83-2.82-3.95-6.39-4.38-10.24a0.84,0.84,0,0,1,.5-0.65c3.64,0,7.27,0,10.91,0a0.69,0.69,0,0,1,.21.16c-0.23,1.65-1,2.8-3,2.89a2.92,2.92,0,0,0,2.14,1.73c1.88,0.49,3.1-.45,4-2.07a8.16,8.16,0,0,1-.58,4.16,5,5,0,0,1-4.91,3.57,2.57,2.57,0,0,1-1.3-.33c-0.77-.47-1-0.05-1.1.58S407.16,267.54,407.16,268.43Z" transform="translate(-288.84 -87.57)"/><path class="cls-12" d="M327.51,197.86a18.74,18.74,0,0,0-1,2.48c-0.34,1.41-.57,2.86-0.79,4.3a12.72,12.72,0,0,0,0,1.92,0.64,0.64,0,0,1-.77.76c-0.4,0-.79,0-1.19,0-1.91,0-2,0-2.13-1.95-0.14-2.13-.12-4.26-0.11-6.4a1,1,0,0,1,.54-0.77c1.73-.27,3.47-0.45,5.21-0.66Z" transform="translate(-288.84 -87.57)"/><path class="cls-12" d="M335.09,179.76l-4.65,8.63L328.76,187h0.86c-0.56-.84-1-1.58-1.55-2.28a1.12,1.12,0,0,1-.06-1.43c0.43-.67.8-1.37,1.24-2a1.12,1.12,0,0,1,.62-0.47C331.58,180.42,333.3,180.1,335.09,179.76Z" transform="translate(-288.84 -87.57)"/><path class="cls-12" d="M311.63,170.89l0.72,1.71,1.76-.89L314.3,172a10,10,0,0,0-.63.95c-0.49.94-.15,1.52,0.89,1.54,0.63,0,1.15.08,0.8,0.93a1.12,1.12,0,0,0-.06.54c0.32,2.55-1,4.49-2.42,6.36-0.4.52-.83,1-1.33,1.62-0.18-.32-0.43-0.69-0.6-1.08a6.85,6.85,0,0,0-2.45-2.9,5.54,5.54,0,0,1-1-.92,1.46,1.46,0,0,1,0-2.07,3.09,3.09,0,0,1,.7-0.71,6.51,6.51,0,0,0,3.1-4.74A3,3,0,0,1,311.63,170.89Z" transform="translate(-288.84 -87.57)"/></g></g></svg>